# xmcd
#
# Track frame offsets: 
#        150
#        19810
#        34725
#        52352
#        72885
#        94727
#        110795
#        125592
#        142840
#        163697
#        178685
#        197730
#
# Disc length: 2895 seconds
#
# Revision: 2
# Processed by: cddbd v1.5.1PL0 Copyright (c) Steve Scherf et al.
# Submitted via: ExactAudioCopy v0.95a4
#
DISCID=af0b4d0c
DTITLE=Slo Leak - When the Clock Strikes 12
DYEAR=1999
DGENRE=Blues
TTITLE0=Why
TTITLE1=Drunk
TTITLE2=If I Get Rich
TTITLE3=Burnt Rubber Tire
TTITLE4=Man Who Gave Himself the Blues
TTITLE5=Can't Take It With You
TTITLE6=I Wanna Do It
TTITLE7=When the Clock Strikes 12
TTITLE8=Big Bad Luck
TTITLE9=Psychic Blues
TTITLE10=Can't Kill Me Twice
TTITLE11=Stranger in Your Town
EXTD=
EXTT0=
EXTT1=
EXTT2=
EXTT3=
EXTT4=
EXTT5=
EXTT6=
EXTT7=
EXTT8=
EXTT9=
EXTT10=
EXTT11=
PLAYORDER=
